<svg xmlns="http://www.w3.org/2000/svg" viewBox="0 0 32 32" fill="none">
    <defs>
        <linearGradient id="paw-grad" x1="0" y1="0" x2="0" y2="1">
            <stop offset="0%" stop-color="#FFB3D1"/>
            <stop offset="100%" stop-color="#FF6FB1"/>
        </linearGradient>
    </defs>
    <g fill="url(#paw-grad)">
        <ellipse cx="7.5" cy="13" rx="2.4" ry="3.2" transform="rotate(-12 7.5 13)"/>
        <ellipse cx="13" cy="8.6" rx="2.4" ry="3.2" transform="rotate(-4 13 8.6)"/>
        <ellipse cx="19" cy="8.6" rx="2.4" ry="3.2" transform="rotate(4 19 8.6)"/>
        <ellipse cx="24.5" cy="13" rx="2.4" ry="3.2" transform="rotate(12 24.5 13)"/>
        <path d="M16 16.2c-4.6 0-8.2 3.1-8.2 6.6 0 2.4 1.8 4.2 4.4 4.2 1.5 0 2.5-.5 3.8-.5s2.3.5 3.8.5c2.6 0 4.4-1.8 4.4-4.2 0-3.5-3.6-6.6-8.2-6.6z"/>
    </g>
</svg>
